<svg width="70" height="40" viewBox="0 0 70 40" fill="none" xmlns="http://www.w3.org/2000/svg">
<g clip-path="url(#clip0_11994_1871)">
<path d="M9.34206 19.4541C9.34206 25.049 13.8762 29.5832 19.4712 29.5832H39.7231V39.4556H19.7278C12.4219 39.4556 6.03983 35.4861 2.63494 29.5832C0.95816 26.6916 0 23.3209 0 19.7278C0 16.1347 1.00949 12.5587 2.78893 9.61582C6.22804 3.84975 12.5245 0 19.7278 0H33.6007V9.30784H21.8324C20.8913 9.34206 20.2925 9.32495 19.4712 9.32495C18.6499 9.32495 17.8628 9.42761 17.11 9.61582C12.6443 10.6766 9.34206 14.6804 9.34206 19.4541Z" fill="black"/>
<path d="M66.7056 29.6048V39.2206C60.8198 39.2035 55.5328 36.5857 51.9568 32.445C51.1869 31.5724 50.4854 30.6143 49.9036 29.6048C48.9112 27.9451 48.1584 26.1486 47.6964 24.2322C47.4056 23.0003 47.3884 21.7342 47.474 20.4852C47.474 20.2456 47.4911 20.0061 47.4911 19.7494C47.4911 18.9795 47.4056 18.2095 47.2345 17.4909C47.2345 17.3369 47.1831 17.2 47.1318 17.0632C45.9512 12.6317 41.9133 9.38077 37.1225 9.38077C37.0198 9.38077 36.9 9.38077 36.7974 9.39788V-0.0810547H37.1225C40.784 -0.0810547 44.206 0.911325 47.1318 2.65654C48.9626 3.73447 50.588 5.10327 51.9568 6.6945C54.8997 10.0652 56.6963 14.4453 56.7818 19.2361C56.7818 24.814 61.1791 29.3824 66.7056 29.6048Z" fill="black"/>
</g>
<defs>
<clipPath id="clip0_11994_1871">
<rect width="69.843" height="39.4556" fill="white"/>
</clipPath>
</defs>
</svg>
